<?xml version="1.0" encoding="UTF-8" standalone="no"?>
<!-- Created with Inkscape (http://www.inkscape.org/) -->

<svg
   width="512"
   height="512"
   viewBox="0 0 512 512"
   version="1.1"
   id="svg5"
   inkscape:version="1.1.1 (3bf5ae0d25, 2021-09-20)"
   sodipodi:docname="logo.svg"
   xmlns:inkscape="http://www.inkscape.org/namespaces/inkscape"
   xmlns:sodipodi="http://sodipodi.sourceforge.net/DTD/sodipodi-0.dtd"
   xmlns="http://www.w3.org/2000/svg"
   xmlns:svg="http://www.w3.org/2000/svg">
  <sodipodi:namedview
     id="namedview7"
     pagecolor="#505050"
     bordercolor="#eeeeee"
     borderopacity="1"
     inkscape:pageshadow="0"
     inkscape:pageopacity="0"
     inkscape:pagecheckerboard="0"
     inkscape:document-units="px"
     showgrid="false"
     inkscape:snap-grids="false"
     inkscape:object-paths="false"
     inkscape:snap-smooth-nodes="true"
     inkscape:object-nodes="true"
     inkscape:snap-object-midpoints="true"
     inkscape:snap-bbox="true"
     inkscape:bbox-nodes="false"
     inkscape:snap-global="true"
     inkscape:snap-others="true"
     inkscape:zoom="0.76449668"
     inkscape:cx="79.137034"
     inkscape:cy="273.38248"
     inkscape:window-width="1362"
     inkscape:window-height="699"
     inkscape:window-x="0"
     inkscape:window-y="0"
     inkscape:window-maximized="1"
     inkscape:current-layer="layer1"
     inkscape:snap-bbox-midpoints="true"
     inkscape:snap-bbox-edge-midpoints="true"
     inkscape:snap-nodes="false"
     inkscape:bbox-paths="false"
     showguides="false">
    <inkscape:grid
       type="xygrid"
       id="grid650" />
  </sodipodi:namedview>
  <defs
     id="defs2" />
  <g
     inkscape:label="Layer 1"
     inkscape:groupmode="layer"
     id="layer1">
    <circle
       style="fill:#c45148;fill-opacity:1;stroke:none;stroke-width:2.5;stroke-linecap:round;stroke-linejoin:miter;stroke-miterlimit:4;stroke-dasharray:none;stroke-opacity:1"
       id="path6008"
       cx="256"
       cy="256"
       r="256" />
    <g
       id="g6137"
       transform="matrix(1.0414562,0,0,1.3585069,-15.800441,-174.95432)">
      <g
         id="g2593"
         style="fill:#f99790;fill-opacity:1;stroke:none">
        <path
           id="path9531"
           style="fill:#f99790;fill-opacity:1;stroke:none;stroke-width:1px;stroke-linecap:butt;stroke-linejoin:miter;stroke-opacity:1"
           d="m 96.1875,395.4082 c -0.59701,0.0519 -1.013336,0.17646 -1.185547,0.39453 -3.605031,4.56507 -63.140625,79.1543 -63.140625,79.1543 0,0 -3.318405,3.38714 0.541016,6.57422 3.787687,3.12784 185.162126,-7.39794 189.333986,-6.76953 2.35726,0.35507 0.97359,5.82711 3.30078,6.34375 6.95516,1.54407 35.36277,0.69905 35.94336,0.68164 0.58059,0.0174 28.9882,0.86243 35.94336,-0.68164 2.32719,-0.51664 0.94352,-5.98868 3.30078,-6.34375 4.17186,-0.62841 185.54629,9.89737 189.33398,6.76953 3.85942,-3.18708 0.54102,-6.57422 0.54102,-6.57422 0,0 -59.53365,-74.58922 -63.13867,-79.1543 -0.68884,-0.87228 -5.2865,-0.25657 -9.71195,0.57723 -2.21272,0.4169 -8.28192,-6.07723 -11.90719,-9.26863 -3.62528,-3.1914 -4.80662,-3.08008 -4.80662,-3.08008 l -139.70586,11.63204 -73.71935,1.30116 -65.68418,-12.9332 c 0,0 -1.51156,-0.18223 -4.80665,3.08008 -3.29509,3.26231 -8.37373,9.96918 -10.26292,9.58928 -3.77839,-0.75979 -8.07917,-1.47414 -10.16872,-1.29241 z"
           sodipodi:nodetypes="sscssscssscsssccccsss" />
      </g>
      <g
         id="g2601"
         style="fill:#f2f990;fill-opacity:1;stroke:none">
        <path
           id="path1301"
           style="fill:#f2f990;fill-opacity:1;stroke:none;stroke-width:1px;stroke-linecap:butt;stroke-linejoin:miter;stroke-opacity:1"
           d="m 116.61914,387.11133 -15.62695,10.50781 -53.02344,71.9375 30.820312,-20.45508 z" />
        <path
           id="path2567"
           style="fill:#f2f990;fill-opacity:1;stroke:none;stroke-width:1px;stroke-linecap:butt;stroke-linejoin:miter;stroke-opacity:1"
           d="m 405.3418,387.11133 37.83008,61.99023 30.82031,20.45508 -53.02344,-71.9375 z" />
      </g>
      <g
         id="g2605"
         style="fill:#e6e6e6;stroke:none">
        <path
           id="path1303"
           style="fill:#f2f990;fill-opacity:1;stroke:none;stroke-width:1px;stroke-linecap:butt;stroke-linejoin:miter;stroke-opacity:1"
           d="m 206.25,439.48633 c -11.5583,-0.27396 -23.51289,2.0458 -35.39258,2.8164 -30.22289,1.96049 -90.188885,8.83874 -90.708982,8.89844 l -32.56836,21.61328 c 6.13215,-0.56253 80.595892,-7.39346 120.892582,-11.09765 8.00182,-0.73555 16.17997,-2.78428 24.58593,-2.24805 9.97111,0.63607 20.6883,1.63415 29.70118,6.6543 1.88206,1.0483 3.75271,3.03225 5.28125,4.78515 1.29474,1.4848 1.97047,2.41069 2.24804,2.78125 l 28.9336,0.25 c -0.39545,-1.0887 -0.9428,-2.70293 -2.37891,-5.89062 -1.84473,-4.09473 -4.38993,-8.81625 -6.6875,-11.06641 -8.57997,-8.40288 -20.61583,-13.59977 -32.49805,-16.20312 -3.7469,-0.82094 -7.55543,-1.20167 -11.4082,-1.29297 z" />
        <path
           id="path2569"
           style="fill:#f2f990;fill-opacity:1;stroke:none;stroke-width:1px;stroke-linecap:butt;stroke-linejoin:miter;stroke-opacity:1"
           d="m 315.71094,439.48633 c -3.85277,0.0913 -7.66131,0.47203 -11.40821,1.29297 -11.88221,2.60335 -23.91807,7.80024 -32.49804,16.20312 -2.29758,2.25016 -4.84277,6.97168 -6.6875,11.06641 -1.43611,3.18769 -1.98346,4.80192 -2.37891,5.89062 l 28.9336,-0.25 c 0.27751,-0.37048 0.95519,-1.29637 2.25,-2.78125 1.52854,-1.7529 3.39723,-3.73685 5.27929,-4.78515 9.01287,-5.02015 19.73007,-6.01823 29.70117,-6.6543 8.40597,-0.53623 16.58412,1.5125 24.58594,2.24805 40.29733,3.70425 114.76462,10.53533 120.89453,11.09765 L 441.8125,451.20117 c -0.5201,-0.0597 -60.48414,-6.93795 -90.70703,-8.89844 -11.87969,-0.7706 -23.83623,-3.09036 -35.39453,-2.8164 z" />
      </g>
      <g
         id="g2597"
         style="fill:#f9f9f9;stroke:none"
         transform="matrix(0.99999895,0,0,1,8.3989712e-5,0)">
        <path
           id="path1305"
           style="fill:#f2f990;fill-opacity:1;stroke:none;stroke-width:1px;stroke-linecap:butt;stroke-linejoin:miter;stroke-opacity:1"
           d="m 221.99609,371.19336 c -2.71899,0.066 -5.48067,0.29628 -8.24609,0.47852 -30.79491,2.02929 -91.34871,12.19547 -92.32422,12.35937 L 82.101562,448.4707 c 4.212521,-0.48183 59.207958,-6.75787 88.593748,-8.66406 15.54404,-1.00831 31.76496,-4.91582 47.49805,-1.46875 12.21453,2.67616 24.66863,7.99983 33.71289,16.85742 2.84561,2.78688 5.3248,7.62182 7.21875,11.82617 0.41928,0.93077 0.34434,0.88417 0.69336,1.72071 l -0.12305,-73.99805 c -0.11563,-0.21638 -1.6669,-3.13574 -4.02343,-6.78711 -2.44207,-3.78391 -5.6622,-8.10236 -8.25977,-10.04687 -4.80668,-3.59823 -11.20248,-5.14109 -17.41602,-6.23047 -2.60166,-0.45613 -5.27878,-0.55213 -7.99804,-0.48633 z"
           transform="matrix(1.0000011,0,0,1,-8.39898e-5,0)" />
        <path
           id="path2571"
           style="fill:#f2f990;fill-opacity:1;stroke:none;stroke-width:1px;stroke-linecap:butt;stroke-linejoin:miter;stroke-opacity:1"
           d="m 299.96484,371.19336 c -2.71994,-0.0659 -5.39769,0.0301 -8,0.48633 -6.21352,1.08938 -12.60934,2.63224 -17.41601,6.23047 -2.59757,1.94451 -5.8177,6.26296 -8.25977,10.04687 -2.35653,3.65137 -3.90781,6.57073 -4.02344,6.78711 l -0.12304,74.00195 c 0.34963,-0.83814 0.27508,-0.79174 0.69531,-1.72461 1.89395,-4.20435 4.37119,-9.03929 7.2168,-11.82617 9.04426,-8.85759 21.49836,-14.18126 33.71289,-16.85742 15.73309,-3.44707 31.95596,0.46044 47.5,1.46875 29.38579,1.90619 84.37928,8.18223 88.5918,8.66406 l -39.32422,-64.43945 c -0.97552,-0.1639 -61.52931,-10.33008 -92.32422,-12.35937 -2.76608,-0.18228 -5.52647,-0.41262 -8.2461,-0.47852 z"
           transform="matrix(1.0000011,0,0,1,-8.39898e-5,0)" />
      </g>
    </g>
    <g
       id="g4147"
       style="fill:none;stroke:#f99790;stroke-width:2.50000131"
       transform="matrix(0.99999895,0,0,1,8.3989712e-5,0)" />
    <g
       id="g5190"
       style="fill:none;stroke:#f99790;stroke-width:2.5" />
    <g
       id="g5242"
       style="fill:none;stroke:#f99790;stroke-width:2.5" />
    <path
       sodipodi:type="star"
       style="fill:#f2f990;fill-opacity:1;stroke:none;stroke-width:20;stroke-linecap:round;stroke-linejoin:miter;stroke-miterlimit:4;stroke-dasharray:none;stroke-opacity:1"
       id="path11370"
       inkscape:flatsided="false"
       sodipodi:sides="12"
       sodipodi:cx="255.99928"
       sodipodi:cy="182.43274"
       sodipodi:r1="135"
       sodipodi:r2="83.429993"
       sodipodi:arg1="3.1415927"
       sodipodi:arg2="3.4033921"
       inkscape:rounded="0"
       inkscape:randomized="0"
       d="m 120.99928,182.43273 54.41282,-21.59327 -36.32624,-45.90673 57.91951,8.50609 -8.50608,-57.919513 45.90673,36.326243 21.59327,-54.412811 21.59327,54.412821 45.90673,-36.326247 -8.50609,57.919517 57.91952,-8.50609 -36.32625,45.90673 54.41281,21.59328 -54.41281,21.59327 36.32624,45.90672 -57.91952,-8.50608 8.50609,57.91951 -45.90673,-36.32624 -21.59327,54.41281 -21.59327,-54.41282 -45.90673,36.32625 8.50609,-57.91952 -57.91952,8.50608 36.32625,-45.90672 z" />
    <text
       xml:space="preserve"
       style="font-style:normal;font-weight:normal;font-size:86.6667px;line-height:1.25;font-family:sans-serif;fill:#f99790;fill-opacity:1;stroke:none"
       x="217.92981"
       y="439.1463"
       id="text20632"
       transform="matrix(0.99999999,-0.17464376,-0.18062731,1.0315454,0,0)"><tspan
         sodipodi:role="line"
         id="tspan20630"
         x="217.92981"
         y="439.1463"
         style="font-style:normal;font-variant:normal;font-weight:normal;font-stretch:normal;font-size:86.6667px;font-family:'Ubuntu Condensed';-inkscape-font-specification:'Ubuntu Condensed, ';fill:#f99790;fill-opacity:1">N</tspan></text>
    <text
       xml:space="preserve"
       style="font-style:normal;font-weight:normal;font-size:86.6667px;line-height:1.25;font-family:sans-serif;fill:#f99790;fill-opacity:1;stroke:none"
       x="283.09824"
       y="348.7254"
       id="text22946"
       transform="matrix(1,0.17632698,0.13696636,1.0241509,0,0)"><tspan
         sodipodi:role="line"
         id="tspan22944"
         x="283.09824"
         y="348.7254"
         style="font-style:normal;font-variant:normal;font-weight:normal;font-stretch:normal;font-size:86.6667px;font-family:'Ubuntu Condensed';-inkscape-font-specification:'Ubuntu Condensed, ';fill:#f99790;fill-opacity:1">T</tspan></text>
    <g
       id="g60282"
       transform="matrix(1.2994346,0,0,1.2994346,-60.96806,-47.024249)"
       style="fill:#f99790;fill-opacity:1">
      <text
         xml:space="preserve"
         style="font-style:normal;font-weight:normal;font-size:66.6667px;line-height:1.25;font-family:sans-serif;fill:#f99790;fill-opacity:1;stroke:none"
         x="202.52715"
         y="183.11305"
         id="text16668"><tspan
           sodipodi:role="line"
           id="tspan16666"
           x="202.52715"
           y="183.11305"
           style="font-style:normal;font-variant:normal;font-weight:normal;font-stretch:normal;font-size:66.6667px;font-family:'Bitstream Vera Serif';-inkscape-font-specification:'Bitstream Vera Serif';fill:#f99790;fill-opacity:1">S</tspan></text>
      <text
         xml:space="preserve"
         style="font-style:normal;font-weight:normal;font-size:66.6667px;line-height:1.25;font-family:sans-serif;fill:#f99790;fill-opacity:1;stroke:none"
         x="237.24767"
         y="219.5305"
         id="text40466"><tspan
           sodipodi:role="line"
           id="tspan40464"
           x="237.24767"
           y="219.5305"
           style="font-style:normal;font-variant:normal;font-weight:normal;font-stretch:normal;font-size:66.6667px;font-family:'Bitstream Vera Serif';-inkscape-font-specification:'Bitstream Vera Serif';fill:#f99790;fill-opacity:1">P</tspan></text>
    </g>
  </g>
</svg>
